<?xml version="1.0" standalone="no"?>
<!DOCTYPE svg PUBLIC "-//W3C//DTD SVG 20010904//EN"
 "http://www.w3.org/TR/2001/REC-SVG-20010904/DTD/svg10.dtd">
<svg version="1.0" xmlns="http://www.w3.org/2000/svg"
 width="250.000000pt" height="250.000000pt" viewBox="0 0 250.000000 250.000000"
 preserveAspectRatio="xMidYMid meet">

<g transform="translate(0.000000,250.000000) scale(0.100000,-0.100000)"
fill="#000000" stroke="none">
<path d="M1860 1973 c-66 -24 -44 -167 23 -148 48 14 72 41 75 83 2 32 -1 43
-20 56 -22 16 -50 19 -78 9z"/>
<path d="M2186 1835 c-25 -49 -49 -75 -127 -140 l-24 -20 36 -3 37 -3 4 -207
c4 -216 9 -245 48 -257 31 -10 105 31 141 76 36 46 33 61 -7 30 -32 -25 -60
-27 -68 -5 -3 9 -6 92 -6 185 l0 169 28 10 c71 25 80 48 20 52 l-43 3 -5 83
-5 82 -29 -55z"/>
<path d="M655 1862 c-35 -22 -129 -121 -122 -128 3 -3 17 2 31 11 55 36 56 31
56 -264 0 -148 3 -272 8 -274 17 -9 73 15 106 47 l36 33 0 142 c0 141 0 143
29 185 41 59 107 116 134 116 51 -1 52 -3 55 -248 l3 -229 25 -24 c34 -32 88
-30 142 6 35 23 90 85 65 73 -4 -2 -20 -10 -35 -17 -57 -29 -58 -26 -58 251 0
221 -2 257 -18 288 -20 41 -54 56 -107 46 -44 -9 -138 -96 -197 -184 l-35 -52
-7 92 c-9 133 -43 172 -111 130z"/>
<path d="M1520 1711 c-93 -29 -168 -94 -211 -186 -24 -50 -29 -73 -29 -138 0
-87 12 -120 60 -160 l31 -26 -35 -51 c-97 -141 -66 -317 60 -336 71 -10 144
17 203 78 101 103 110 148 111 551 l0 277 -82 -1 c-46 0 -94 -4 -108 -8z m70
-156 l0 -135 -42 -30 c-68 -50 -129 -38 -149 29 -16 54 -4 120 32 174 38 58
51 68 107 83 26 7 48 13 50 13 1 1 2 -60 2 -134z m-22 -594 c-31 -62 -79 -87
-137 -71 -59 16 -74 44 -69 132 4 97 29 142 136 251 l87 87 3 -176 c2 -167 1
-180 -20 -223z"/>
<path d="M1801 1684 c-44 -39 -56 -66 -19 -40 12 9 30 16 40 16 17 0 18 -15
18 -204 0 -184 2 -206 19 -227 30 -37 83 -32 128 14 l37 36 -37 -6 -37 -6 0
199 c0 233 -4 247 -67 252 -36 3 -47 -2 -82 -34z"/>
<path d="M125 1511 c-16 -10 -38 -27 -48 -39 -18 -19 -17 -22 12 -86 108 -238
337 -485 598 -645 125 -76 314 -154 448 -183 135 -29 398 -32 525 -5 108 23
369 128 390 156 3 4 37 28 75 53 92 61 211 172 302 281 88 107 101 154 20 74
-109 -109 -303 -245 -415 -293 -217 -92 -342 -118 -562 -118 -196 1 -303 20
-490 89 -336 123 -608 352 -752 632 -29 57 -57 103 -63 103 -5 0 -23 -8 -40
-19z"/>
<path d="M0 1159 l0 -206 50 -74 c140 -207 307 -355 530 -468 126 -64 225 -99
400 -139 102 -23 135 -26 300 -25 179 0 190 1 324 36 76 20 143 40 148 45 5 5
4 36 -3 76 -9 54 -14 66 -28 62 -154 -46 -480 -55 -676 -17 -355 67 -638 234
-831 490 -74 98 -151 243 -188 351 l-25 75 -1 -206z"/>
</g>
</svg>
