<svg version="1.1" id="Layer_1" xmlns="http://www.w3.org/2000/svg" xmlns:xlink="http://www.w3.org/1999/xlink" x="0px" y="0px"
	 width="100%" viewBox="0 0 512 512" enable-background="new 0 0 512 512" xml:space="preserve">
<path fill="#FEFEFD" opacity="1.000000" stroke="none" 
	d="
M1.000002,231.000000 
	C1.000000,154.366333 1.000000,77.732681 1.000000,1.049510 
	C171.560165,1.049510 342.120361,1.049510 513.000000,1.049510 
	C513.000000,91.021179 513.000000,181.042740 512.666138,271.590698 
	C511.566467,272.737427 510.753174,273.307892 510.042114,273.985626 
	C500.881256,282.716705 492.439941,292.392700 482.421570,299.990082 
	C466.978729,311.701141 450.914642,322.753418 434.290375,332.709778 
	C407.237946,348.911530 377.607025,358.502472 346.460541,363.315857 
	C340.079193,364.302002 333.566681,364.513336 327.229065,365.695312 
	C306.427429,369.574921 285.594269,367.552155 265.119110,364.519165 
	C246.998520,361.834900 229.216873,356.532837 211.478424,351.681427 
	C189.040634,345.544708 168.425980,334.975250 148.607986,323.083252 
	C124.529762,308.634857 102.899452,291.040070 83.906731,270.206146 
	C64.876434,249.331055 49.335613,226.352844 39.447197,199.767426 
	C38.291729,196.660904 36.621651,195.076492 33.530567,197.222260 
	C26.988377,201.763702 20.364153,206.231064 14.227662,211.280624 
	C12.764380,212.484756 11.939371,216.403687 12.769407,218.145203 
	C18.771391,230.738052 24.508739,243.560425 31.769625,255.429352 
	C49.438805,284.312103 71.383827,309.606476 97.327110,331.546448 
	C125.698029,355.539429 156.972412,374.555939 191.634552,387.688477 
	C227.804855,401.392426 265.254791,408.119171 304.130981,405.856812 
	C330.447784,404.325317 355.946899,399.045776 380.398407,389.355957 
	C403.189423,380.324188 424.413910,368.470978 443.998352,353.455841 
	C463.271484,338.679413 480.685120,322.156677 496.321167,303.660461 
	C501.869415,297.097351 507.439758,290.552948 513.000000,284.000000 
	C513.000000,360.297638 513.000000,436.595306 513.000000,512.946472 
	C342.448792,512.946472 171.897583,512.946472 1.000000,512.946472 
	C1.000000,449.645660 1.000000,386.290680 1.361240,322.487640 
	C3.215150,324.410461 4.723650,326.771576 6.198095,329.153748 
	C25.580858,360.468872 50.596733,386.530304 80.361900,408.042206 
	C86.176270,412.244293 92.810059,415.312592 99.041901,418.911865 
	C99.017906,418.919891 99.034019,418.967865 99.077545,419.296143 
	C99.842934,419.882446 100.564781,420.140503 101.556824,420.571350 
	C102.422653,420.982697 103.018295,421.221283 103.684891,421.793152 
	C105.275909,422.830505 106.795975,423.534546 108.544334,424.403107 
	C108.943451,424.645203 109.114273,424.722778 109.240524,425.146332 
	C111.917274,426.739899 114.638596,427.987488 117.569046,429.403809 
	C117.938309,429.652863 118.098434,429.733185 118.214401,430.160034 
	C123.225151,432.697205 128.280060,434.887878 133.662201,437.258057 
	C135.857361,438.129639 137.725281,438.821686 139.648071,439.790405 
	C140.471024,440.332550 141.239105,440.598022 142.360626,440.997681 
	C145.483749,442.081268 148.253418,443.030701 151.066742,444.316772 
	C151.846161,444.809509 152.581909,444.965607 153.650696,445.294830 
	C154.965332,445.667816 155.946915,445.867676 156.992859,446.410980 
	C157.407043,447.098083 157.699142,447.630798 158.115097,447.757782 
	C169.022430,451.087738 179.936646,454.395935 190.876999,457.614899 
	C191.460587,457.786621 192.283295,457.145630 193.295471,456.961060 
	C194.007584,457.086151 194.418930,457.133179 194.948608,457.508362 
	C197.710800,458.198761 200.354660,458.560974 203.328629,459.010590 
	C204.333527,459.201660 205.008316,459.305359 205.868942,459.706024 
	C208.718155,460.442139 211.381516,460.881256 214.410858,461.485107 
	C215.273361,461.508484 215.769928,461.367157 216.594940,461.356750 
	C217.627686,461.537231 218.331940,461.586823 219.146652,461.880554 
	C219.829010,461.989838 220.400940,461.854919 221.379456,461.785889 
	C223.156509,461.935974 224.526947,462.020203 226.007050,462.451355 
	C227.759613,462.967957 229.402527,463.137604 231.432709,463.500427 
	C232.634995,463.538513 233.450012,463.383453 234.691879,463.370178 
	C240.699539,463.723633 246.280350,463.935333 251.914795,464.406036 
	C252.690506,464.490936 253.412582,464.316833 254.594559,464.159363 
	C266.282410,463.861267 277.510376,463.546539 289.102448,463.463989 
	C290.295654,463.570221 291.124725,463.444305 292.313110,463.460266 
	C294.129974,463.082794 295.587555,462.563416 297.489471,462.043701 
	C300.537201,461.769806 303.140625,461.496307 306.076630,461.448669 
	C306.924255,461.582031 307.439270,461.489502 308.338257,461.528381 
	C311.824493,460.992065 314.926727,460.324280 318.370636,459.714294 
	C319.141815,459.619659 319.571320,459.467224 320.350281,459.450653 
	C322.845459,458.771973 324.991180,457.957458 327.451721,457.122681 
	C328.175262,457.007660 328.583923,456.912872 329.184326,457.115936 
	C339.597076,454.439514 349.822388,451.479309 360.022339,448.434235 
	C360.392365,448.323761 360.513428,447.379181 360.785858,446.823059 
	C360.821198,446.822815 360.819763,446.752167 361.189423,446.785767 
	C362.231781,445.762024 363.622101,444.580933 363.464478,443.666779 
	C362.116638,435.849823 360.493256,428.080200 358.910339,420.304932 
	C358.875977,420.136169 358.344147,420.068634 358.038361,419.624146 
	C357.970703,418.859741 357.909058,418.425110 358.115723,417.857910 
	C357.520813,414.202698 356.182587,412.941589 353.481384,416.783142 
	C352.795685,416.883759 352.406586,416.959229 351.711609,416.888733 
	C350.956665,416.758118 350.507629,416.773376 349.801239,416.604706 
	C347.950531,417.192535 346.357178,417.964325 344.365417,418.773041 
	C342.640961,418.947052 341.314880,419.084137 339.760437,418.941406 
	C333.824524,419.400421 328.132080,420.297241 322.406250,420.845917 
	C309.523560,422.080414 296.640961,423.748566 283.727142,424.103119 
	C270.954529,424.453796 258.129181,423.649323 245.354401,422.890198 
	C236.589798,422.369415 227.752365,421.662170 219.162689,419.955292 
	C207.545731,417.646912 195.977997,414.802734 184.676224,411.270050 
	C170.961380,406.983032 157.216034,402.490723 144.079102,396.729919 
	C125.058708,388.389130 107.455734,377.423279 90.914665,364.745148 
	C75.377548,352.836517 61.396805,339.229675 49.579098,323.829926 
	C37.704391,308.355865 26.344061,292.277130 18.983978,273.907562 
	C14.492645,262.697906 10.124446,251.438538 5.572917,240.253616 
	C4.279491,237.075119 2.536715,234.079483 1.000002,231.000000 
M228.485352,134.100677 
	C227.598694,133.449768 226.712021,132.798859 225.976944,132.017441 
	C225.976944,132.017441 225.848282,132.170609 226.095535,131.436890 
	C224.705200,130.183548 223.396286,127.971313 221.910233,127.845139 
	C215.908066,127.335503 209.830734,127.154251 203.826584,127.546783 
	C201.896072,127.672997 200.105408,129.938324 198.220688,131.223511 
	C198.220688,131.223511 198.204285,131.245209 197.446899,131.016464 
	C195.318222,132.702652 193.189545,134.388855 190.701324,136.585770 
	C190.163223,137.408417 189.625107,138.231049 188.531403,139.326126 
	C187.689148,140.219803 186.846909,141.113480 185.377930,141.967773 
	C184.602936,142.658401 183.827942,143.349030 182.355194,144.013947 
	C177.475800,150.246124 172.596405,156.478302 167.109543,163.056580 
	C166.779709,164.094208 166.449860,165.131836 165.869644,166.743958 
	C165.517868,167.485229 165.166092,168.226486 164.157562,169.083435 
	C163.722839,170.027451 163.288116,170.971466 162.562180,172.118011 
	C162.562180,172.118011 162.496552,172.466583 162.272766,172.360825 
	C162.272766,172.360825 162.038101,172.440125 161.613846,171.824936 
	C160.991074,170.156754 160.209656,168.527786 159.784973,166.810593 
	C159.232391,164.576370 158.963120,162.272064 158.511795,159.172150 
	C158.457993,157.267380 158.404175,155.362610 158.778595,152.639816 
	C158.071167,149.679764 157.363739,146.719711 156.518387,142.946411 
	C156.399490,141.290848 156.280579,139.635269 156.668793,137.559738 
	C155.171524,134.783051 154.306732,131.253494 152.061417,129.367310 
	C144.569290,123.073593 130.680954,127.926399 125.650795,138.587387 
	C122.462418,141.747284 119.274033,144.907196 115.387321,148.026230 
	C112.215576,151.571045 108.941612,155.033691 105.965309,158.735657 
	C105.422890,159.410339 106.095337,161.061752 106.206970,162.262268 
	C107.278114,162.132828 108.480766,162.272888 109.396919,161.825821 
	C112.800179,160.165161 116.070793,158.234131 119.462448,156.547913 
	C124.661339,153.963165 125.248650,154.345535 125.250778,160.183777 
	C125.262428,192.150452 125.248314,224.117126 125.272346,256.083801 
	C125.273834,258.068054 125.166168,260.165863 125.750168,262.007660 
	C126.492096,264.347534 128.141235,268.465271 128.960449,268.361267 
	C132.709991,267.885101 136.306168,266.201111 140.000000,265.000000 
	C140.000000,265.000000 139.956299,264.952881 140.725830,265.058350 
	C143.813324,263.033752 146.900803,261.009186 150.278473,258.602966 
	C150.498795,258.365234 150.755936,258.178070 151.771149,258.103699 
	C155.916092,256.247314 158.514679,253.333740 158.447754,247.653946 
	C158.494766,231.888809 158.424576,216.121841 158.669662,200.359772 
	C158.732361,196.328140 159.792328,192.312012 160.817795,187.909851 
	C161.322769,187.346069 161.827728,186.782288 162.998703,186.157440 
	C164.507492,184.393585 165.956284,182.573898 167.535812,180.875839 
	C173.394684,174.577240 179.056381,168.066132 185.279297,162.147003 
	C188.609467,158.979416 193.638397,156.942474 197.287292,160.914322 
	C199.747253,163.591995 201.183487,168.179153 201.238708,171.939133 
	C201.585938,195.580994 201.391769,219.230499 201.449081,242.877289 
	C201.457108,246.192276 201.417496,249.610184 202.163177,252.802155 
	C204.883560,264.447327 215.809494,270.139221 224.424957,268.024078 
	C236.554901,265.046204 246.149948,257.808502 252.918488,247.187576 
	C254.011475,245.472504 254.286728,243.236313 254.940002,241.241028 
	C254.492874,240.965820 254.045746,240.690613 253.598618,240.415421 
	C251.073593,242.205719 248.525162,243.964066 246.028122,245.792587 
	C239.623428,250.482635 236.951263,250.684509 232.374466,245.844910 
	C232.366486,217.548355 232.373413,189.251785 232.332153,160.955276 
	C232.326828,157.307541 232.071747,153.660172 232.295959,149.413940 
	C232.283875,148.948166 232.271774,148.482376 232.691086,147.515915 
	C231.890289,145.616516 231.089493,143.717133 230.191681,141.117188 
	C229.545502,139.694351 228.899307,138.271500 228.502518,136.115936 
	C228.385605,135.612640 228.268677,135.109329 228.485352,134.100677 
M475.798462,163.891479 
	C477.717957,159.578171 476.984863,158.338440 472.513062,158.027557 
	C467.484528,157.677979 462.464203,157.210342 457.309906,155.894760 
	C457.361542,145.405319 457.413177,134.915894 457.764832,123.698723 
	C456.809601,122.902695 455.854401,122.106667 454.899200,121.310646 
	C454.445862,122.681831 453.992523,124.053017 453.282532,126.047226 
	C452.739685,127.282753 452.196808,128.518280 451.088654,130.016617 
	C450.783112,130.717987 450.477570,131.419373 449.933899,132.799545 
	C449.367462,133.776566 448.801025,134.753586 447.795227,136.211334 
	C447.813690,137.002106 447.832153,137.792862 447.737030,139.140854 
	C447.562897,139.475296 447.388733,139.809723 446.506165,140.123322 
	C445.063049,142.821121 443.619934,145.518936 441.998077,148.643341 
	C441.827759,148.914673 441.593536,149.108902 440.583710,149.050583 
	C435.351807,152.992355 430.035309,156.828659 424.926636,160.924118 
	C422.657623,162.743118 420.395752,164.830856 418.892456,167.266739 
	C417.577515,169.397354 416.613342,172.461792 421.915985,173.062088 
	C425.295685,173.022476 428.675354,172.982864 432.251709,173.837906 
	C432.408722,197.230377 432.565704,220.622833 432.244934,244.307129 
	C432.517120,244.871017 432.789276,245.434906 433.181641,246.772049 
	C433.416779,248.853912 433.651917,250.935760 433.328979,253.516724 
	C432.514221,263.822937 441.897736,271.186432 451.403931,267.646423 
	C454.468994,266.505005 457.609161,265.418884 460.415680,263.791412 
	C461.814362,262.980377 462.537567,261.004486 463.916016,258.994904 
	C466.092438,256.794037 468.268829,254.593185 471.106232,252.462616 
	C472.380005,251.288757 473.653809,250.114899 475.635406,248.916367 
	C475.951172,248.157303 476.266968,247.398224 476.754761,246.295975 
	C476.754761,246.295975 476.981293,245.986069 477.680084,245.920868 
	C477.971222,245.155563 478.262360,244.390259 478.721893,243.275864 
	C478.721893,243.275864 478.947968,242.961029 479.677277,242.895538 
	C480.496826,240.905655 481.316345,238.915771 482.135864,236.925888 
	C481.620087,236.506973 481.104279,236.088058 480.588501,235.669144 
	C479.346802,236.695953 478.105133,237.722763 476.326813,239.155167 
	C473.887970,241.148285 471.449127,243.141418 468.746582,244.627090 
	C468.154114,245.069351 467.561646,245.511612 466.564362,246.235199 
	C466.311798,246.445572 466.058624,246.655228 464.947052,246.892212 
	C462.633423,246.926559 460.319794,246.960922 457.714966,246.222549 
	C457.615509,222.214615 457.516083,198.206696 458.109344,173.947311 
	C460.407715,172.966995 462.706055,171.986679 465.511261,170.723526 
	C465.849884,170.536316 466.188538,170.349106 467.104218,170.564575 
	C467.793793,170.156815 468.483337,169.749039 469.676208,168.962250 
	C469.894318,168.421402 470.112427,167.880569 470.859558,167.062607 
	C471.567657,166.368149 472.275787,165.673706 473.582764,165.129135 
	C474.076813,164.767410 474.570862,164.405701 475.798462,163.891479 
M372.188690,164.664108 
	C371.653503,165.312714 371.118347,165.961319 370.044617,166.894775 
	C369.111908,167.655106 368.179230,168.415436 366.539185,168.957733 
	C364.096191,171.707962 361.539734,174.370956 359.303955,177.280380 
	C358.844727,177.878021 359.290314,180.110352 359.835663,180.335144 
	C360.817657,180.739853 362.597687,180.642960 363.332153,179.973846 
	C367.260254,176.395340 371.777832,174.586609 377.291962,174.609695 
	C377.291962,174.609695 377.498596,174.475830 377.674896,175.338531 
	C377.802063,177.815826 378.030182,180.292709 378.040802,182.770493 
	C378.143860,206.807693 378.210419,230.845032 377.889618,255.474670 
	C378.159393,256.110687 378.429169,256.746674 378.736969,258.101837 
	C382.706573,267.403503 388.622009,269.748871 398.197968,267.172516 
	C406.512695,264.935547 410.799377,258.395630 415.882690,252.630676 
	C416.822388,251.564941 416.489105,249.376755 416.940033,246.414780 
	C414.227814,247.799393 412.384308,248.261642 411.234589,249.415344 
	C407.462708,253.200287 404.091614,252.839417 400.659668,248.113922 
	C400.618500,223.724030 400.577332,199.334137 401.036743,174.524323 
	C400.381531,173.016281 399.726349,171.508224 398.976349,169.278732 
	C398.630798,168.189713 398.285217,167.100693 398.381958,165.628510 
	C397.559845,164.766769 396.737701,163.905045 395.699097,162.776886 
	C395.699097,162.776886 395.644104,162.438019 395.869019,161.694565 
	C391.277802,154.388870 378.260132,155.933334 372.855957,164.625809 
	C372.855957,164.625809 372.852692,164.839066 372.188690,164.664108 
M350.185333,285.149323 
	C350.745300,280.692535 351.766113,276.238190 351.790009,271.778534 
	C351.939087,243.946716 351.865082,216.113724 351.865417,188.281113 
	C351.865509,180.114655 351.839630,171.948059 351.884125,163.781845 
	C351.897858,161.255524 351.699127,158.888138 348.438385,158.840622 
	C330.487610,158.579010 312.411530,157.375626 296.197845,167.702545 
	C282.820129,176.223175 271.697754,186.824951 266.371002,202.020355 
	C263.720764,209.580627 262.069977,217.751419 261.574921,225.745590 
	C260.845062,237.531540 261.489258,249.504868 269.714447,259.205475 
	C272.423798,262.400818 276.053345,264.815918 279.490417,267.785004 
	C272.419983,276.913666 265.405304,285.813049 263.626770,297.441498 
	C261.703827,310.014130 260.790741,322.477936 266.497253,334.493347 
	C269.190826,340.164825 273.361267,344.339386 279.029083,346.648010 
	C290.971863,351.512665 302.655640,348.753906 313.666595,343.732971 
	C323.604706,339.201202 331.603546,331.716583 337.749420,322.729950 
	C340.816803,318.244690 342.419495,312.757782 344.757690,306.967133 
	C348.164642,300.132050 349.299744,292.794250 350.185333,285.149323 
M404.561493,121.641541 
	C403.468048,116.950066 402.462860,112.284424 398.320770,109.022064 
	C393.349518,105.106628 388.070465,104.806374 382.355316,106.941147 
	C377.673401,108.689987 374.049713,111.489265 373.658447,116.779022 
	C373.327545,121.252617 373.361176,125.789444 373.680023,130.266479 
	C374.180176,137.289825 380.186920,142.743530 385.726837,141.427780 
	C395.910309,139.009125 403.432251,133.865662 404.561493,121.641541 
z"/>
<path fill="#ED6009" opacity="1.000000" stroke="none" 
	d="
M513.000000,283.539368 
	C507.439758,290.552948 501.869415,297.097351 496.321167,303.660461 
	C480.685120,322.156677 463.271484,338.679413 443.998352,353.455841 
	C424.413910,368.470978 403.189423,380.324188 380.398407,389.355957 
	C355.946899,399.045776 330.447784,404.325317 304.130981,405.856812 
	C265.254791,408.119171 227.804855,401.392426 191.634552,387.688477 
	C156.972412,374.555939 125.698029,355.539429 97.327110,331.546448 
	C71.383827,309.606476 49.438805,284.312103 31.769625,255.429352 
	C24.508739,243.560425 18.771391,230.738052 12.769407,218.145203 
	C11.939371,216.403687 12.764380,212.484756 14.227662,211.280624 
	C20.364153,206.231064 26.988377,201.763702 33.530567,197.222260 
	C36.621651,195.076492 38.291729,196.660904 39.447197,199.767426 
	C49.335613,226.352844 64.876434,249.331055 83.906731,270.206146 
	C102.899452,291.040070 124.529762,308.634857 148.607986,323.083252 
	C168.425980,334.975250 189.040634,345.544708 211.478424,351.681427 
	C229.216873,356.532837 246.998520,361.834900 265.119110,364.519165 
	C285.594269,367.552155 306.427429,369.574921 327.229065,365.695312 
	C333.566681,364.513336 340.079193,364.302002 346.460541,363.315857 
	C377.607025,358.502472 407.237946,348.911530 434.290375,332.709778 
	C450.914642,322.753418 466.978729,311.701141 482.421570,299.990082 
	C492.439941,292.392700 500.881256,282.716705 510.042114,273.985626 
	C510.753174,273.307892 511.566467,272.737427 512.666138,272.058533 
	C513.000000,275.692902 513.000000,279.385834 513.000000,283.539368 
z"/>
<path fill="#1B7F88" opacity="1.000000" stroke="none" 
	d="
M118.258545,429.813507 
	C118.098434,429.733185 117.938309,429.652863 117.513603,429.083801 
	C114.594383,427.330170 111.939743,426.065247 109.285095,424.800354 
	C109.114273,424.722778 108.943451,424.645203 108.430664,424.112366 
	C106.597107,422.924683 105.105522,422.192291 103.613937,421.459869 
	C103.018295,421.221283 102.422653,420.982697 101.481659,420.275970 
	C100.435539,419.527832 99.734779,419.247833 99.034027,418.967865 
	C99.034019,418.967865 99.017906,418.919891 98.998764,418.572693 
	C96.328018,416.298523 93.702225,414.334778 91.020676,412.450378 
	C70.999626,398.381012 52.079266,383.160492 35.788292,364.654755 
	C23.661747,350.879608 13.303314,336.012634 3.797173,320.431274 
	C3.183921,319.426147 1.946872,318.801605 1.000001,318.000000 
	C1.000000,290.645782 1.000000,263.291534 1.321063,235.653320 
	C7.128727,249.401962 11.911028,263.762085 18.251200,277.397827 
	C30.750214,304.279266 47.945591,327.882080 69.164787,348.779877 
	C93.376579,372.624969 121.470322,390.305573 152.487762,403.420410 
	C187.400558,418.182281 224.125427,425.238281 261.950012,426.015656 
	C283.173950,426.451843 304.502502,427.337006 325.524445,423.032043 
	C330.401520,422.033295 335.170197,420.505524 339.988770,419.221191 
	C341.314880,419.084137 342.640961,418.947052 344.733765,418.910706 
	C346.998993,418.691376 348.497528,418.371307 350.182800,418.247559 
	C350.918854,417.974152 351.468170,417.504395 352.017487,417.034668 
	C352.406586,416.959229 352.795685,416.883759 353.820129,416.915588 
	C355.586121,417.345367 356.716766,417.667908 357.847382,417.990479 
	C357.909058,418.425110 357.970703,418.859741 357.924072,420.035278 
	C358.023254,421.893982 358.314972,423.003571 358.424591,424.130859 
	C359.158295,431.678284 362.905212,438.908173 360.819763,446.752167 
	C360.819763,446.752167 360.821198,446.822815 360.410400,446.847382 
	C357.646881,447.584106 355.313232,448.368744 352.937775,448.994781 
	C345.985046,450.827209 339.015656,452.596497 331.748627,454.321503 
	C330.873352,454.780060 330.302185,455.307648 329.529663,455.935425 
	C329.039581,456.220612 328.927673,456.481415 328.992615,456.818054 
	C328.583923,456.912872 328.175262,457.007660 327.058167,456.984833 
	C325.244568,456.873047 324.139404,456.878876 322.805664,456.681885 
	C321.010071,457.190979 319.443085,457.902863 317.473450,458.667938 
	C315.717865,458.801331 314.364899,458.881531 312.798096,458.744263 
	C311.602020,458.936218 310.619812,459.345642 309.365051,459.759125 
	C308.731445,459.804626 308.370422,459.846069 307.832642,459.698914 
	C307.018585,460.081177 306.381287,460.651978 305.744019,461.222778 
	C303.140625,461.496307 300.537201,461.769806 297.084167,461.916260 
	C294.826263,461.816315 293.417999,461.843445 291.796356,461.666504 
	C290.634766,462.052277 289.686554,462.642059 288.738312,463.231812 
	C277.510376,463.546539 266.282410,463.861267 254.223663,464.020325 
	C252.882294,463.958740 252.371735,464.052856 251.861160,464.147003 
	C246.280350,463.935333 240.699539,463.723633 234.638535,463.086517 
	C233.102371,462.397552 232.046387,462.134064 230.564468,461.840485 
	C228.724823,461.908386 227.311111,462.006409 225.897400,462.104431 
	C224.526947,462.020203 223.156509,461.935974 221.258728,461.567749 
	C220.166351,461.401306 219.601288,461.518860 219.036209,461.636414 
	C218.331940,461.586823 217.627686,461.537231 216.560608,461.095337 
	C215.461151,460.420074 214.724533,460.137207 213.720154,459.819580 
	C213.092911,459.770935 212.733398,459.756958 212.214935,459.475159 
	C211.033768,459.127533 210.011581,459.047760 208.566040,458.939087 
	C207.322815,459.076477 206.502960,459.242767 205.683105,459.409058 
	C205.008316,459.305359 204.333527,459.201660 203.254608,458.743652 
	C202.352020,458.180878 201.853531,457.972504 201.225922,457.515564 
	C200.386612,457.141632 199.676422,457.016266 198.549103,456.869690 
	C197.031418,456.959076 195.930847,457.069611 194.830276,457.180176 
	C194.418930,457.133179 194.007584,457.086151 193.147095,456.614471 
	C188.585846,455.045380 184.473724,453.900970 180.229523,452.515869 
	C179.389832,452.155853 178.682220,452.036560 177.597748,451.854919 
	C170.456757,449.884247 163.692612,447.975891 156.928482,446.067535 
	C155.946915,445.867676 154.965332,445.667816 153.533157,445.037170 
	C152.396057,444.397614 151.709579,444.188904 151.023087,443.980164 
	C148.253418,443.030701 145.483749,442.081268 142.321625,440.651428 
	C141.150528,439.951935 140.371872,439.732819 139.593216,439.513702 
	C137.725281,438.821686 135.857361,438.129639 133.556091,437.004395 
	C132.173492,435.990997 131.224213,435.410767 130.139893,434.549377 
	C129.320740,433.951111 128.636627,433.633972 127.606110,433.173889 
	C124.259315,431.958466 121.258934,430.885986 118.258545,429.813507 
z"/>
<path fill="#78B4B9" opacity="1.000000" stroke="none" 
	d="
M339.760437,418.941406 
	C335.170197,420.505524 330.401520,422.033295 325.524445,423.032043 
	C304.502502,427.337006 283.173950,426.451843 261.950012,426.015656 
	C224.125427,425.238281 187.400558,418.182281 152.487762,403.420410 
	C121.470322,390.305573 93.376579,372.624969 69.164787,348.779877 
	C47.945591,327.882080 30.750214,304.279266 18.251200,277.397827 
	C11.911028,263.762085 7.128727,249.401962 1.321063,235.184662 
	C1.000000,233.933334 1.000000,232.866653 1.000002,231.399994 
	C2.536715,234.079483 4.279491,237.075119 5.572917,240.253616 
	C10.124446,251.438538 14.492645,262.697906 18.983978,273.907562 
	C26.344061,292.277130 37.704391,308.355865 49.579098,323.829926 
	C61.396805,339.229675 75.377548,352.836517 90.914665,364.745148 
	C107.455734,377.423279 125.058708,388.389130 144.079102,396.729919 
	C157.216034,402.490723 170.961380,406.983032 184.676224,411.270050 
	C195.977997,414.802734 207.545731,417.646912 219.162689,419.955292 
	C227.752365,421.662170 236.589798,422.369415 245.354401,422.890198 
	C258.129181,423.649323 270.954529,424.453796 283.727142,424.103119 
	C296.640961,423.748566 309.523560,422.080414 322.406250,420.845917 
	C328.132080,420.297241 333.824524,419.400421 339.760437,418.941406 
z"/>
<path fill="#67AAB0" opacity="1.000000" stroke="none" 
	d="
M1.000001,318.399994 
	C1.946872,318.801605 3.183921,319.426147 3.797173,320.431274 
	C13.303314,336.012634 23.661747,350.879608 35.788292,364.654755 
	C52.079266,383.160492 70.999626,398.381012 91.020676,412.450378 
	C93.702225,414.334778 96.328018,416.298523 99.022766,418.564697 
	C92.810059,415.312592 86.176270,412.244293 80.361900,408.042206 
	C50.596733,386.530304 25.580858,360.468872 6.198095,329.153748 
	C4.723650,326.771576 3.215150,324.410461 1.361240,322.019775 
	C1.000000,320.933319 1.000000,319.866669 1.000001,318.399994 
z"/>
<path fill="#0A0A0A" opacity="1.000000" stroke="none" 
	d="
M349.560516,285.262970 
	C349.299744,292.794250 348.164642,300.132050 344.408936,307.471130 
	C343.230560,309.413544 342.370270,310.835236 341.575989,312.292847 
	C332.055206,329.764832 318.827667,342.607971 298.372803,345.826111 
	C285.076111,347.918091 272.377838,344.123810 267.197144,330.527374 
	C262.197021,317.404816 262.603577,303.969421 267.895050,291.233734 
	C271.093750,283.535095 276.372253,276.669952 280.979858,269.602142 
	C282.860870,266.716797 283.376801,265.636322 279.698181,263.262695 
	C274.877350,260.152039 269.908783,255.895538 267.353210,250.924149 
	C261.317017,239.181702 262.480927,225.915283 264.887421,213.734222 
	C268.768219,194.090210 280.416748,179.054474 298.390289,169.524704 
	C303.158264,166.996674 308.070068,163.885239 313.224396,163.120056 
	C323.673828,161.568787 334.341736,161.531662 344.903717,160.674866 
	C349.086273,160.335571 350.209381,161.832870 350.190033,166.008072 
	C350.027069,201.146103 350.126099,236.285278 350.087402,271.424042 
	C350.082306,276.037231 349.744324,280.649994 349.560516,285.262970 
M304.883911,331.758514 
	C310.980896,330.702484 315.667236,327.270630 319.098236,322.396179 
	C323.747681,315.790649 326.676300,308.471222 326.654907,300.170715 
	C326.604218,280.512024 326.652161,260.853088 326.617340,241.194351 
	C326.614105,239.365021 326.305023,237.536240 326.137970,235.707199 
	C325.647308,235.490768 325.156677,235.274338 324.666016,235.057907 
	C313.776459,246.255554 302.863678,257.430817 292.026459,268.678894 
	C290.657074,270.100189 289.622711,271.863953 288.538635,273.537384 
	C280.146057,286.492188 277.602417,300.696899 279.447632,315.870514 
	C280.133331,321.509369 282.617889,325.789276 287.608032,328.748077 
	C292.763885,331.805115 298.280823,332.217102 304.883911,331.758514 
M303.132050,175.575317 
	C293.992371,183.556717 288.628662,193.810913 286.414001,205.500565 
	C284.840973,213.803375 286.036194,222.083939 290.537781,229.539444 
	C293.177063,233.910583 297.708374,235.279755 302.178497,234.776550 
	C310.087036,233.886307 317.275360,230.534698 322.917877,224.862686 
	C324.881622,222.888702 326.417664,219.544098 326.483704,216.785599 
	C326.830719,202.294846 326.664520,187.791229 326.616150,173.292282 
	C326.610382,171.558640 326.237549,169.826218 326.043884,168.170212 
	C317.366058,167.851273 310.152954,170.305115 303.132050,175.575317 
z"/>
<path fill="#020202" opacity="1.000000" stroke="none" 
	d="
M162.496552,172.466583 
	C162.496552,172.466583 162.562180,172.118011 163.040009,172.072266 
	C163.949982,171.006943 164.382141,169.987350 164.814301,168.967758 
	C165.166092,168.226486 165.517868,167.485229 166.288712,166.469482 
	C167.114670,165.777466 167.521576,165.359924 168.283417,164.955170 
	C169.975754,162.865585 171.313126,160.763245 172.804001,158.440308 
	C173.320694,157.824234 173.683884,157.428726 174.394531,157.042969 
	C177.153732,153.693344 179.565491,150.334000 182.111084,146.779907 
	C182.451645,146.344238 182.688110,146.137268 183.308670,145.955353 
	C184.443573,144.633347 185.224121,143.320251 186.004669,142.007172 
	C186.846909,141.113480 187.689148,140.219803 189.170593,139.249359 
	C194.782104,136.703232 199.772842,134.269440 204.701294,131.715439 
	C205.261276,131.425247 205.471283,130.459702 206.138031,129.601471 
	C209.922958,129.336060 213.413452,129.276489 216.985641,129.558701 
	C218.868591,130.398163 220.669830,130.895859 222.809647,131.506149 
	C224.048248,131.802689 224.948257,131.986649 225.848282,132.170609 
	C225.848282,132.170609 225.976944,132.017441 225.782959,132.377228 
	C225.757050,133.124222 225.925110,133.511444 226.043335,134.270172 
	C226.746719,135.377335 227.499924,136.112991 228.253113,136.848648 
	C228.899307,138.271500 229.545502,139.694351 230.053421,141.837677 
	C230.189484,144.157654 230.463806,145.757111 230.544418,147.693466 
	C230.877930,148.691116 231.405136,149.351868 231.932358,150.012634 
	C232.071747,153.660172 232.326828,157.307541 232.332153,160.955276 
	C232.373413,189.251785 232.366486,217.548355 232.230103,246.642731 
	C234.077179,256.765411 240.681290,250.765991 245.676315,251.294922 
	C244.345261,253.532883 243.079193,255.577667 241.243683,256.593475 
	C236.256256,259.353668 231.126968,261.914337 225.872330,264.121948 
	C217.185928,267.771393 203.508072,260.858368 203.791931,248.398895 
	C204.220245,229.598358 203.870529,210.780075 203.851868,191.969345 
	C203.844284,184.311859 204.013474,176.649109 203.783600,168.998322 
	C203.529312,160.534668 195.773056,153.838882 189.554214,157.025208 
	C177.071320,163.421036 168.332748,173.618668 162.332687,186.218506 
	C161.827728,186.782288 161.322769,187.346069 160.229385,188.036346 
	C158.457626,191.406433 156.334152,194.626526 156.252335,197.897690 
	C155.882339,212.693100 155.904114,227.506454 156.182419,242.305878 
	C156.289795,248.015167 154.212646,252.579605 150.090317,255.847290 
	C144.433273,260.331482 138.176163,264.022125 129.931580,263.398315 
	C129.931580,250.379944 129.931335,237.436172 129.931610,224.492386 
	C129.932068,202.867599 129.963943,181.242752 129.916840,159.618057 
	C129.900101,151.934769 126.052681,149.373810 119.023727,152.077789 
	C117.691147,152.590408 116.186394,152.655472 114.528908,152.629425 
	C114.854660,151.546921 115.412582,150.762039 116.315941,149.972290 
	C120.436081,145.971924 124.210777,141.976440 128.172852,137.747345 
	C129.138641,136.899826 129.917053,136.285934 131.057404,135.754669 
	C133.455765,134.746277 135.619278,133.838943 137.507187,132.533173 
	C146.780640,126.119232 153.063721,133.099686 154.005341,141.053558 
	C155.230881,151.406021 155.444473,161.878601 156.077347,172.300491 
	C156.157898,173.626923 155.819336,175.081604 156.264984,176.252228 
	C156.658539,177.285950 157.876114,178.005966 158.729858,178.864487 
	C159.430206,177.851273 160.130554,176.838043 160.882996,175.628906 
	C160.935104,175.432983 161.121719,175.073044 161.466782,174.976974 
	C162.040085,174.076126 162.268311,173.271362 162.496552,172.466583 
z"/>
<path fill="#050505" opacity="1.000000" stroke="none" 
	d="
M470.445251,252.392334 
	C468.268829,254.593185 466.092438,256.794037 463.397339,259.264557 
	C461.707153,260.208801 460.535583,260.883392 458.993103,261.409912 
	C452.256561,263.726044 445.900269,266.297150 438.763000,262.750549 
	C437.347900,259.354187 436.199677,256.176666 435.308990,252.698395 
	C435.369385,246.603500 435.022827,240.809921 435.002258,235.015182 
	C434.931946,215.198502 434.891968,195.380814 435.038086,175.564972 
	C435.072968,170.836105 433.285736,168.891632 428.555389,169.030228 
	C425.977417,169.105759 423.375763,168.373199 420.916138,167.684082 
	C424.961517,164.495224 428.875549,161.627380 433.127838,158.812790 
	C433.955902,158.220276 434.445740,157.574509 435.155273,156.682190 
	C437.348480,154.032440 439.321930,151.629227 441.295380,149.226013 
	C441.593536,149.108902 441.827759,148.914673 442.437469,148.383240 
	C444.322754,145.463486 445.768677,142.803818 447.214600,140.144165 
	C447.388733,139.809723 447.562897,139.475296 448.023285,138.868958 
	C448.568634,138.433685 448.806244,138.243484 449.366943,137.976624 
	C451.140991,135.728714 452.570465,133.530624 453.999908,131.332550 
	C455.033539,139.858673 454.871674,147.968307 455.161469,156.061783 
	C455.224152,157.813080 456.662598,160.729187 457.899414,160.980209 
	C460.775635,161.563980 463.915253,160.850082 467.383667,160.674286 
	C469.560394,160.675385 471.301575,160.664276 473.107910,161.086670 
	C473.109985,162.673203 473.046936,163.826233 472.983887,164.979263 
	C472.275787,165.673706 471.567657,166.368149 470.192200,167.089630 
	C466.636871,167.815887 463.760529,169.031723 460.858276,169.097000 
	C456.147278,169.202957 454.892853,171.475739 454.979034,175.709061 
	C455.144653,183.844788 455.032471,191.986115 455.042633,200.125107 
	C455.060669,214.575607 454.923584,229.028854 455.171173,243.475479 
	C455.299988,250.989349 458.816345,252.850739 465.714417,249.325073 
	C467.941376,248.476273 469.828003,247.754593 472.110504,246.881470 
	C471.419830,249.167160 470.932556,250.779755 470.445251,252.392334 
z"/>
<path fill="#040404" opacity="1.000000" stroke="none" 
	d="
M367.246552,169.175781 
	C368.179230,168.415436 369.111908,167.655106 370.658752,166.881409 
	C371.799469,166.191696 372.326080,165.515381 372.852692,164.839066 
	C372.852692,164.839066 372.855957,164.625809 373.124084,164.675018 
	C374.807343,163.952957 376.222443,163.181671 377.956055,162.563889 
	C379.600891,161.964584 380.927124,161.211792 382.638580,160.415924 
	C387.230560,161.061234 391.437347,161.749619 395.644104,162.438019 
	C395.644104,162.438019 395.699097,162.776886 395.790466,163.227432 
	C396.567780,164.455887 397.253723,165.233780 397.939636,166.011688 
	C398.285217,167.100693 398.630798,168.189713 398.783478,169.854965 
	C399.239136,171.935547 399.887665,173.439896 400.536194,174.944244 
	C400.577332,199.334137 400.618500,223.724030 400.451782,248.792053 
	C399.995697,256.259033 406.241913,253.771790 411.026184,256.326172 
	C406.472137,259.238495 402.875214,261.538696 399.009552,263.634613 
	C398.060974,263.830597 397.381134,264.230835 396.368408,264.749084 
	C389.031250,266.454895 384.361023,264.198334 379.915253,256.760590 
	C379.377808,255.925354 378.832611,255.403839 378.287415,254.882339 
	C378.210419,230.845032 378.143860,206.807693 378.040802,182.770493 
	C378.030182,180.292709 377.802063,177.815826 377.763245,174.557648 
	C376.961395,171.162994 375.589417,169.898575 372.626678,172.138275 
	C370.256622,172.501129 368.259705,172.770126 365.808289,173.100342 
	C366.488464,171.244339 366.867523,170.210068 367.246552,169.175781 
z"/>
<path fill="#999999" opacity="1.000000" stroke="none" 
	d="
M349.872925,285.206146 
	C349.744324,280.649994 350.082306,276.037231 350.087402,271.424042 
	C350.126099,236.285278 350.027069,201.146103 350.190033,166.008072 
	C350.209381,161.832870 349.086273,160.335571 344.903717,160.674866 
	C334.341736,161.531662 323.673828,161.568787 313.224396,163.120056 
	C308.070068,163.885239 303.158264,166.996674 298.390289,169.524704 
	C280.416748,179.054474 268.768219,194.090210 264.887421,213.734222 
	C262.480927,225.915283 261.317017,239.181702 267.353210,250.924149 
	C269.908783,255.895538 274.877350,260.152039 279.698181,263.262695 
	C283.376801,265.636322 282.860870,266.716797 280.979858,269.602142 
	C276.372253,276.669952 271.093750,283.535095 267.895050,291.233734 
	C262.603577,303.969421 262.197021,317.404816 267.197144,330.527374 
	C272.377838,344.123810 285.076111,347.918091 298.372803,345.826111 
	C318.827667,342.607971 332.055206,329.764832 341.575989,312.292847 
	C342.370270,310.835236 343.230560,309.413544 344.372406,307.849548 
	C342.419495,312.757782 340.816803,318.244690 337.749420,322.729950 
	C331.603546,331.716583 323.604706,339.201202 313.666595,343.732971 
	C302.655640,348.753906 290.971863,351.512665 279.029083,346.648010 
	C273.361267,344.339386 269.190826,340.164825 266.497253,334.493347 
	C260.790741,322.477936 261.703827,310.014130 263.626770,297.441498 
	C265.405304,285.813049 272.419983,276.913666 279.490417,267.785004 
	C276.053345,264.815918 272.423798,262.400818 269.714447,259.205475 
	C261.489258,249.504868 260.845062,237.531540 261.574921,225.745590 
	C262.069977,217.751419 263.720764,209.580627 266.371002,202.020355 
	C271.697754,186.824951 282.820129,176.223175 296.197845,167.702545 
	C312.411530,157.375626 330.487610,158.579010 348.438385,158.840622 
	C351.699127,158.888138 351.897858,161.255524 351.884125,163.781845 
	C351.839630,171.948059 351.865509,180.114655 351.865417,188.281113 
	C351.865082,216.113724 351.939087,243.946716 351.790009,271.778534 
	C351.766113,276.238190 350.745300,280.692535 349.872925,285.206146 
z"/>
<path fill="#ED620E" opacity="1.000000" stroke="none" 
	d="
M404.567871,122.038300 
	C403.432251,133.865662 395.910309,139.009125 385.726837,141.427780 
	C380.186920,142.743530 374.180176,137.289825 373.680023,130.266479 
	C373.361176,125.789444 373.327545,121.252617 373.658447,116.779022 
	C374.049713,111.489265 377.673401,108.689987 382.355316,106.941147 
	C388.070465,104.806374 393.349518,105.106628 398.320770,109.022064 
	C402.462860,112.284424 403.468048,116.950066 404.567871,122.038300 
z"/>
<path fill="#8B8B8B" opacity="1.000000" stroke="none" 
	d="
M162.665695,186.187973 
	C168.332748,173.618668 177.071320,163.421036 189.554214,157.025208 
	C195.773056,153.838882 203.529312,160.534668 203.783600,168.998322 
	C204.013474,176.649109 203.844284,184.311859 203.851868,191.969345 
	C203.870529,210.780075 204.220245,229.598358 203.791931,248.398895 
	C203.508072,260.858368 217.185928,267.771393 225.872330,264.121948 
	C231.126968,261.914337 236.256256,259.353668 241.243683,256.593475 
	C243.079193,255.577667 244.345261,253.532883 245.676315,251.294922 
	C240.681290,250.765991 234.077179,256.765411 232.273361,247.092499 
	C236.951263,250.684509 239.623428,250.482635 246.028122,245.792587 
	C248.525162,243.964066 251.073593,242.205719 253.598618,240.415421 
	C254.045746,240.690613 254.492874,240.965820 254.940002,241.241028 
	C254.286728,243.236313 254.011475,245.472504 252.918488,247.187576 
	C246.149948,257.808502 236.554901,265.046204 224.424957,268.024078 
	C215.809494,270.139221 204.883560,264.447327 202.163177,252.802155 
	C201.417496,249.610184 201.457108,246.192276 201.449081,242.877289 
	C201.391769,219.230499 201.585938,195.580994 201.238708,171.939133 
	C201.183487,168.179153 199.747253,163.591995 197.287292,160.914322 
	C193.638397,156.942474 188.609467,158.979416 185.279297,162.147003 
	C179.056381,168.066132 173.394684,174.577240 167.535812,180.875839 
	C165.956284,182.573898 164.507492,184.393585 162.665695,186.187973 
z"/>
<path fill="#494949" opacity="1.000000" stroke="none" 
	d="
M114.761078,152.927048 
	C116.186394,152.655472 117.691147,152.590408 119.023727,152.077789 
	C126.052681,149.373810 129.900101,151.934769 129.916840,159.618057 
	C129.963943,181.242752 129.932068,202.867599 129.931610,224.492386 
	C129.931335,237.436172 129.931580,250.379944 129.931580,263.398315 
	C138.176163,264.022125 144.433273,260.331482 150.090317,255.847290 
	C154.212646,252.579605 156.289795,248.015167 156.182419,242.305878 
	C155.904114,227.506454 155.882339,212.693100 156.252335,197.897690 
	C156.334152,194.626526 158.457626,191.406433 160.017532,188.225800 
	C159.792328,192.312012 158.732361,196.328140 158.669662,200.359772 
	C158.424576,216.121841 158.494766,231.888809 158.099426,248.237900 
	C155.517349,251.895065 153.283615,254.968277 151.049881,258.041504 
	C150.755936,258.178070 150.498795,258.365234 149.774963,258.781525 
	C146.166397,260.957672 143.061340,262.955292 139.956299,264.952881 
	C139.956299,264.952881 140.000000,265.000000 139.551849,264.917877 
	C137.942841,264.906097 136.762695,264.865845 135.624252,265.064575 
	C127.923012,266.408783 127.922050,266.425171 127.921890,258.723846 
	C127.921219,225.968979 127.940132,193.214081 127.910736,160.459244 
	C127.904144,153.108841 125.211197,151.487381 118.670624,154.681656 
	C115.736755,156.114487 112.765541,157.470856 109.811272,158.861923 
	C109.530968,158.458221 109.250671,158.054520 108.970367,157.650818 
	C110.486916,156.035706 112.003456,154.420593 113.725433,152.980408 
	C114.279320,153.061539 114.627785,152.967758 114.932724,152.928864 
	C114.889198,152.983749 114.761078,152.927048 114.761078,152.927048 
z"/>
<path fill="#B8B8B8" opacity="1.000000" stroke="none" 
	d="
M113.520004,152.805481 
	C112.003456,154.420593 110.486916,156.035706 108.970367,157.650818 
	C109.250671,158.054520 109.530968,158.458221 109.811272,158.861923 
	C112.765541,157.470856 115.736755,156.114487 118.670624,154.681656 
	C125.211197,151.487381 127.904144,153.108841 127.910736,160.459244 
	C127.940132,193.214081 127.921219,225.968979 127.921890,258.723846 
	C127.922050,266.425171 127.923012,266.408783 135.624252,265.064575 
	C136.762695,264.865845 137.942841,264.906097 139.530548,264.893372 
	C136.306168,266.201111 132.709991,267.885101 128.960449,268.361267 
	C128.141235,268.465271 126.492096,264.347534 125.750168,262.007660 
	C125.166168,260.165863 125.273834,258.068054 125.272346,256.083801 
	C125.248314,224.117126 125.262428,192.150452 125.250778,160.183777 
	C125.248650,154.345535 124.661339,153.963165 119.462448,156.547913 
	C116.070793,158.234131 112.800179,160.165161 109.396919,161.825821 
	C108.480766,162.272888 107.278114,162.132828 106.206970,162.262268 
	C106.095337,161.061752 105.422890,159.410339 105.965309,158.735657 
	C108.941612,155.033691 112.215576,151.571045 115.743301,148.368622 
	C116.056351,149.133057 116.013428,149.555115 115.970505,149.977173 
	C115.412582,150.762039 114.854660,151.546921 114.528908,152.629425 
	C114.761078,152.927048 114.889198,152.983749 114.579132,152.683441 
	C114.019379,152.523911 113.769691,152.664688 113.520004,152.805481 
z"/>
<path fill="#929292" opacity="1.000000" stroke="none" 
	d="
M399.278320,263.838898 
	C402.875214,261.538696 406.472137,259.238495 411.026184,256.326172 
	C406.241913,253.771790 399.995697,256.259033 400.490906,249.237183 
	C404.091614,252.839417 407.462708,253.200287 411.234589,249.415344 
	C412.384308,248.261642 414.227814,247.799393 416.940033,246.414780 
	C416.489105,249.376755 416.822388,251.564941 415.882690,252.630676 
	C410.799377,258.395630 406.512695,264.935547 398.197968,267.172516 
	C388.622009,269.748871 382.706573,267.403503 379.015320,257.645111 
	C379.498291,257.150360 379.702881,257.112335 379.907501,257.074310 
	C384.361023,264.198334 389.031250,266.454895 396.656891,264.855042 
	C397.944977,264.508301 398.611633,264.173584 399.278320,263.838898 
z"/>
<path fill="#505050" opacity="1.000000" stroke="none" 
	d="
M420.784790,168.005096 
	C423.375763,168.373199 425.977417,169.105759 428.555389,169.030228 
	C433.285736,168.891632 435.072968,170.836105 435.038086,175.564972 
	C434.891968,195.380814 434.931946,215.198502 435.002258,235.015182 
	C435.022827,240.809921 435.369385,246.603500 435.017517,252.680084 
	C434.274719,252.980896 434.080902,252.999268 433.887054,253.017624 
	C433.651917,250.935760 433.416779,248.853912 433.364075,246.243851 
	C433.271912,245.148865 432.997314,244.582092 432.722717,244.015305 
	C432.565704,220.622833 432.408722,197.230377 432.129456,172.978577 
	C428.333344,171.811874 424.659485,171.504501 420.727112,171.066315 
	C420.573975,169.958694 420.679382,168.981903 420.784790,168.005096 
z"/>
<path fill="#696969" opacity="1.000000" stroke="none" 
	d="
M465.374054,249.452194 
	C458.816345,252.850739 455.299988,250.989349 455.171173,243.475479 
	C454.923584,229.028854 455.060669,214.575607 455.042633,200.125107 
	C455.032471,191.986115 455.144653,183.844788 454.979034,175.709061 
	C454.892853,171.475739 456.147278,169.202957 460.858276,169.097000 
	C463.760529,169.031723 466.636871,167.815887 469.927704,167.228180 
	C470.112427,167.880569 469.894318,168.421402 469.129303,169.055817 
	C467.897339,169.486893 467.212250,169.824402 466.527161,170.161896 
	C466.188538,170.349106 465.849884,170.536316 464.831848,170.815689 
	C461.971375,172.136169 457.528748,168.735626 457.416656,174.198761 
	C457.516083,198.206696 457.615509,222.214615 457.884949,246.997910 
	C460.311737,248.108704 462.568481,248.444138 464.962250,248.947906 
	C465.099243,249.116226 465.374054,249.452194 465.374054,249.452194 
z"/>
<path fill="#494949" opacity="1.000000" stroke="none" 
	d="
M160.830902,175.824814 
	C160.130554,176.838043 159.430206,177.851273 158.729858,178.864487 
	C157.876114,178.005966 156.658539,177.285950 156.264984,176.252228 
	C155.819336,175.081604 156.157898,173.626923 156.077347,172.300491 
	C155.444473,161.878601 155.230881,151.406021 154.005341,141.053558 
	C153.063721,133.099686 146.780640,126.119232 137.507187,132.533173 
	C135.619278,133.838943 133.455765,134.746277 131.126007,135.420654 
	C142.150101,125.206673 147.495178,125.803810 155.715347,137.774429 
	C155.794952,137.890350 156.009918,137.913330 156.161682,137.979706 
	C156.280579,139.635269 156.399490,141.290848 156.420837,143.733170 
	C156.998993,147.499237 157.674683,150.478531 158.350372,153.457840 
	C158.404175,155.362610 158.457993,157.267380 158.328400,159.931839 
	C158.118942,164.806915 157.917557,168.934143 158.193848,173.029129 
	C158.260437,174.015839 159.909531,174.895782 160.830902,175.824814 
z"/>
<path fill="#696969" opacity="1.000000" stroke="none" 
	d="
M466.948120,160.662048 
	C463.915253,160.850082 460.775635,161.563980 457.899414,160.980209 
	C456.662598,160.729187 455.224152,157.813080 455.161469,156.061783 
	C454.871674,147.968307 455.033539,139.858673 453.999908,131.332550 
	C452.570465,133.530624 451.140991,135.728714 449.296967,137.570038 
	C448.666443,136.719055 448.450500,136.224838 448.234558,135.730621 
	C448.801025,134.753586 449.367462,133.776566 450.369995,132.365448 
	C451.088745,131.205490 451.371338,130.479660 451.653961,129.753815 
	C452.196808,128.518280 452.739685,127.282753 453.695190,125.624466 
	C455.226807,124.943283 456.345825,124.684875 457.464813,124.426460 
	C457.413177,134.915894 457.361542,145.405319 457.243347,156.730377 
	C458.363556,158.368820 459.451477,159.528915 460.760223,159.891098 
	C462.742188,160.439590 464.877808,160.432861 466.948120,160.662048 
z"/>
<path fill="#AAAAAA" opacity="1.000000" stroke="none" 
	d="
M433.608032,253.267181 
	C434.080902,252.999268 434.274719,252.980896 434.759979,252.980865 
	C436.199677,256.176666 437.347900,259.354187 438.855957,263.093231 
	C445.620789,267.930939 452.641083,267.200378 459.364044,261.557983 
	C460.535583,260.883392 461.707153,260.208801 463.222504,259.544861 
	C462.537567,261.004486 461.814362,262.980377 460.415680,263.791412 
	C457.609161,265.418884 454.468994,266.505005 451.403931,267.646423 
	C441.897736,271.186432 432.514221,263.822937 433.608032,253.267181 
z"/>
<path fill="#B6B6B6" opacity="1.000000" stroke="none" 
	d="
M366.892883,169.066757 
	C366.867523,170.210068 366.488464,171.244339 365.808289,173.100342 
	C368.259705,172.770126 370.256622,172.501129 372.863861,172.386353 
	C374.666901,173.211319 375.859650,173.882065 377.052399,174.552826 
	C371.777832,174.586609 367.260254,176.395340 363.332153,179.973846 
	C362.597687,180.642960 360.817657,180.739853 359.835663,180.335144 
	C359.290314,180.110352 358.844727,177.878021 359.303955,177.280380 
	C361.539734,174.370956 364.096191,171.707962 366.892883,169.066757 
z"/>
<path fill="#B8B8B8" opacity="1.000000" stroke="none" 
	d="
M156.415237,137.769714 
	C156.009918,137.913330 155.794952,137.890350 155.715347,137.774429 
	C147.495178,125.803810 142.150101,125.206673 130.764099,135.338043 
	C129.917053,136.285934 129.138641,136.899826 127.846306,137.725037 
	C126.902657,137.976624 126.472916,138.016907 126.043175,138.057175 
	C130.680954,127.926399 144.569290,123.073593 152.061417,129.367310 
	C154.306732,131.253494 155.171524,134.783051 156.415237,137.769714 
z"/>
<path fill="#78B4B9" opacity="1.000000" stroke="none" 
	d="
M180.361603,452.756592 
	C184.473724,453.900970 188.585846,455.045380 192.846329,456.536377 
	C192.283295,457.145630 191.460587,457.786621 190.876999,457.614899 
	C179.936646,454.395935 169.022430,451.087738 158.115097,447.757782 
	C157.699142,447.630798 157.407043,447.098083 156.992859,446.410980 
	C163.692612,447.975891 170.456757,449.884247 177.801575,452.131012 
	C179.042053,452.565125 179.701828,452.660858 180.361603,452.756592 
z"/>
<path fill="#78B4B9" opacity="1.000000" stroke="none" 
	d="
M332.052765,454.390503 
	C339.015656,452.596497 345.985046,450.827209 352.937775,448.994781 
	C355.313232,448.368744 357.646881,447.584106 360.375061,446.847656 
	C360.513428,447.379181 360.392365,448.323761 360.022339,448.434235 
	C349.822388,451.479309 339.597076,454.439514 329.184326,457.115936 
	C328.927673,456.481415 329.039581,456.220612 329.851501,455.961853 
	C330.934052,455.388855 331.493408,454.889679 332.052765,454.390503 
z"/>
<path fill="#B0B0B0" opacity="1.000000" stroke="none" 
	d="
M420.916138,167.684082 
	C420.679382,168.981903 420.573975,169.958694 420.728455,171.365662 
	C420.992218,172.196548 420.996094,172.597260 421.000000,172.997971 
	C416.613342,172.461792 417.577515,169.397354 418.892456,167.266739 
	C420.395752,164.830856 422.657623,162.743118 424.926636,160.924118 
	C430.035309,156.828659 435.351807,152.992355 440.939545,149.138306 
	C439.321930,151.629227 437.348480,154.032440 434.840485,156.688187 
	C433.800507,157.546982 433.295044,158.153259 432.789581,158.759537 
	C428.875549,161.627380 424.961517,164.495224 420.916138,167.684082 
z"/>
<path fill="#696969" opacity="1.000000" stroke="none" 
	d="
M470.775757,252.427475 
	C470.932556,250.779755 471.419830,249.167160 472.110504,246.881470 
	C469.828003,247.754593 467.941376,248.476273 465.714417,249.325073 
	C465.374054,249.452194 465.099243,249.116226 465.129700,248.726089 
	C465.375061,247.845352 465.589966,247.354767 465.804840,246.864166 
	C466.058624,246.655228 466.311798,246.445572 467.070374,246.165436 
	C468.054352,245.775314 468.532318,245.454941 469.010284,245.134552 
	C471.449127,243.141418 473.887970,241.148285 476.942993,239.112000 
	C478.022125,240.366241 478.485046,241.663635 478.947968,242.961029 
	C478.947968,242.961029 478.721893,243.275864 478.353760,243.568695 
	C477.650818,244.569717 477.316071,245.277893 476.981323,245.986084 
	C476.981293,245.986069 476.754761,246.295975 476.381775,246.578094 
	C475.648376,247.553833 475.287994,248.247437 474.927612,248.941040 
	C473.653809,250.114899 472.380005,251.288757 470.775757,252.427475 
z"/>
<path fill="#B8B8B8" opacity="1.000000" stroke="none" 
	d="
M225.971909,131.803741 
	C224.948257,131.986649 224.048248,131.802689 222.698883,131.221649 
	C220.467667,130.288696 218.685791,129.752808 216.903931,129.216934 
	C213.413452,129.276489 209.922958,129.336060 205.747879,129.553680 
	C202.792435,130.216156 200.521606,130.720596 198.250763,131.225021 
	C200.105408,129.938324 201.896072,127.672997 203.826584,127.546783 
	C209.830734,127.154251 215.908066,127.335503 221.910233,127.845139 
	C223.396286,127.971313 224.705200,130.183548 225.971909,131.803741 
z"/>
<path fill="#B8B8B8" opacity="1.000000" stroke="none" 
	d="
M377.637512,162.410370 
	C376.222443,163.181671 374.807343,163.952957 373.074921,164.580414 
	C378.260132,155.933334 391.277802,154.388870 395.756561,162.066284 
	C391.437347,161.749619 387.230560,161.061234 382.318420,160.266663 
	C380.287842,160.910446 378.962677,161.660400 377.637512,162.410370 
z"/>
<path fill="#78B4B9" opacity="1.000000" stroke="none" 
	d="
M361.189423,446.785767 
	C362.905212,438.908173 359.158295,431.678284 358.424591,424.130859 
	C358.314972,423.003571 358.023254,421.893982 357.930054,420.365051 
	C358.344147,420.068634 358.875977,420.136169 358.910339,420.304932 
	C360.493256,428.080200 362.116638,435.849823 363.464478,443.666779 
	C363.622101,444.580933 362.231781,445.762024 361.189423,446.785767 
z"/>
<path fill="#C2C2C2" opacity="1.000000" stroke="none" 
	d="
M467.383667,160.674271 
	C464.877808,160.432861 462.742188,160.439590 460.760223,159.891098 
	C459.451477,159.528915 458.363556,158.368820 457.308533,157.180023 
	C462.464203,157.210342 467.484528,157.677979 472.513062,158.027557 
	C476.984863,158.338440 477.717957,159.578171 475.398773,163.620483 
	C474.346985,162.450714 473.694885,161.551926 473.042755,160.653137 
	C471.301575,160.664276 469.560394,160.675385 467.383667,160.674271 
z"/>
<path fill="#B8B8B8" opacity="1.000000" stroke="none" 
	d="
M182.954315,145.964294 
	C182.688110,146.137268 182.451645,146.344238 181.780548,146.860229 
	C178.893127,150.434570 176.470108,153.733902 174.047073,157.033218 
	C173.683884,157.428726 173.320694,157.824234 172.490219,158.515472 
	C170.774506,160.286606 169.526047,161.762024 168.136078,163.107178 
	C167.994553,162.976898 167.717026,162.710495 167.717026,162.710495 
	C172.596405,156.478302 177.475800,150.246124 182.719543,144.350845 
	C183.040695,145.113266 182.997513,145.538773 182.954315,145.964294 
z"/>
<path fill="#B8B8B8" opacity="1.000000" stroke="none" 
	d="
M160.882996,175.628906 
	C159.909531,174.895782 158.260437,174.015839 158.193848,173.029129 
	C157.917557,168.934143 158.118942,164.806915 158.358459,160.344727 
	C158.963120,162.272064 159.232391,164.576370 159.784973,166.810593 
	C160.209656,168.527786 160.991074,170.156754 161.640152,172.441010 
	C161.484879,173.729080 161.303299,174.401062 161.121719,175.073044 
	C161.121719,175.073044 160.935104,175.432983 160.882996,175.628906 
z"/>
<path fill="#494949" opacity="1.000000" stroke="none" 
	d="
M198.235718,131.224274 
	C200.521606,130.720596 202.792435,130.216156 205.453430,129.759521 
	C205.471283,130.459702 205.261276,131.425247 204.701294,131.715439 
	C199.772842,134.269440 194.782104,136.703232 189.448395,139.113159 
	C189.625107,138.231049 190.163223,137.408417 191.229675,136.311432 
	C193.906784,134.439789 196.055542,132.842499 198.204285,131.245209 
	C198.204285,131.245209 198.220688,131.223511 198.235718,131.224274 
z"/>
<path fill="#78B4B9" opacity="1.000000" stroke="none" 
	d="
M130.274933,434.830505 
	C131.224213,435.410767 132.173492,435.990997 133.228867,436.824890 
	C128.280060,434.887878 123.225151,432.697205 118.214394,430.160034 
	C121.258934,430.885986 124.259315,431.958466 127.691223,433.470337 
	C128.840149,434.216705 129.557541,434.523621 130.274933,434.830505 
z"/>
<path fill="#494949" opacity="1.000000" stroke="none" 
	d="
M125.846985,138.322281 
	C126.472916,138.016907 126.902657,137.976624 127.658936,137.958664 
	C124.210777,141.976440 120.436081,145.971924 116.315941,149.972290 
	C116.013428,149.555115 116.056351,149.133057 116.092468,148.389038 
	C119.274033,144.907196 122.462418,141.747284 125.846985,138.322281 
z"/>
<path fill="#C2C2C2" opacity="1.000000" stroke="none" 
	d="
M479.312622,242.928284 
	C478.485046,241.663635 478.022125,240.366241 477.211304,238.909210 
	C478.105133,237.722763 479.346802,236.695953 480.588501,235.669144 
	C481.104279,236.088058 481.620087,236.506973 482.135864,236.925888 
	C481.316345,238.915771 480.496826,240.905655 479.312622,242.928284 
z"/>
<path fill="#AAAAAA" opacity="1.000000" stroke="none" 
	d="
M421.457977,173.030029 
	C420.996094,172.597260 420.992218,172.196548 420.987000,171.496490 
	C424.659485,171.504501 428.333344,171.811874 432.031128,172.531250 
	C428.675354,172.982864 425.295685,173.022476 421.457977,173.030029 
z"/>
<path fill="#B8B8B8" opacity="1.000000" stroke="none" 
	d="
M151.410522,258.072601 
	C153.283615,254.968277 155.517349,251.895065 158.038818,248.668427 
	C158.514679,253.333740 155.916092,256.247314 151.410522,258.072601 
z"/>
<path fill="#B8B8B8" opacity="1.000000" stroke="none" 
	d="
M140.341064,265.005615 
	C143.061340,262.955292 146.166397,260.957672 149.629852,258.972351 
	C146.900803,261.009186 143.813324,263.033752 140.341064,265.005615 
z"/>
<path fill="#78B4B9" opacity="1.000000" stroke="none" 
	d="
M109.240524,425.146332 
	C111.939743,426.065247 114.594383,427.330170 117.304474,428.915070 
	C114.638596,427.987488 111.917274,426.739899 109.240524,425.146332 
z"/>
<path fill="#B8B8B8" opacity="1.000000" stroke="none" 
	d="
M158.564484,153.048828 
	C157.674683,150.478531 156.998993,147.499237 156.489807,144.139801 
	C157.363739,146.719711 158.071167,149.679764 158.564484,153.048828 
z"/>
<path fill="#78B4B9" opacity="1.000000" stroke="none" 
	d="
M313.011932,458.961731 
	C314.364899,458.881531 315.717865,458.801331 317.520294,458.928223 
	C317.989502,459.309082 318.009216,459.482788 318.028961,459.656494 
	C314.926727,460.324280 311.824493,460.992065 308.343811,461.280029 
	C307.980042,460.562683 307.994751,460.225098 308.009430,459.887512 
	C308.370422,459.846069 308.731445,459.804626 309.740906,459.828979 
	C311.263519,459.583771 312.137726,459.272766 313.011932,458.961731 
z"/>
<path fill="#B0B0B0" opacity="1.000000" stroke="none" 
	d="
M446.860382,140.133743 
	C445.768677,142.803818 444.322754,145.463486 442.526855,148.169952 
	C443.619934,145.518936 445.063049,142.821121 446.860382,140.133743 
z"/>
<path fill="#B8B8B8" opacity="1.000000" stroke="none" 
	d="
M197.825592,131.130829 
	C196.055542,132.842499 193.906784,134.439789 191.409454,136.056061 
	C193.189545,134.388855 195.318222,132.702652 197.825592,131.130829 
z"/>
<path fill="#C2C2C2" opacity="1.000000" stroke="none" 
	d="
M457.763000,174.073029 
	C457.528748,168.735626 461.971375,172.136169 464.578430,170.957123 
	C462.706055,171.986679 460.407715,172.966995 457.763000,174.073029 
z"/>
<path fill="#78B4B9" opacity="1.000000" stroke="none" 
	d="
M201.355057,457.764099 
	C201.853531,457.972504 202.352020,458.180878 202.924515,458.656250 
	C200.354660,458.560974 197.710800,458.198761 194.948608,457.508362 
	C195.930847,457.069611 197.031418,456.959076 198.750153,457.151062 
	C200.030548,457.557098 200.692810,457.660614 201.355057,457.764099 
z"/>
<path fill="#8B8B8B" opacity="1.000000" stroke="none" 
	d="
M230.738129,147.356583 
	C230.463806,145.757111 230.189484,144.157654 230.101929,142.187958 
	C231.089493,143.717133 231.890289,145.616516 232.200043,147.709106 
	C231.385391,147.720383 231.061768,147.538483 230.738129,147.356583 
z"/>
<path fill="#C2C2C2" opacity="1.000000" stroke="none" 
	d="
M465.375946,246.878189 
	C465.589966,247.354767 465.375061,247.845352 464.992737,248.557770 
	C462.568481,248.444138 460.311737,248.108704 458.030579,247.384277 
	C460.319794,246.960922 462.633423,246.926559 465.375946,246.878189 
z"/>
<path fill="#C2C2C2" opacity="1.000000" stroke="none" 
	d="
M457.614807,124.062592 
	C456.345825,124.684875 455.226807,124.943283 453.823486,125.312950 
	C453.992523,124.053017 454.445862,122.681831 454.899170,121.310638 
	C455.854401,122.106667 456.809601,122.902695 457.614807,124.062592 
z"/>
<path fill="#78B4B9" opacity="1.000000" stroke="none" 
	d="
M212.373901,459.743011 
	C212.733398,459.756958 213.092911,459.770935 213.728302,460.066772 
	C214.030746,460.671997 214.044312,460.995941 214.044891,461.320404 
	C211.381516,460.881256 208.718155,460.442139 205.868942,459.706055 
	C206.502960,459.242767 207.322815,459.076477 208.805191,459.217987 
	C210.436447,459.598175 211.405167,459.670593 212.373901,459.743011 
z"/>
<path fill="#78B4B9" opacity="1.000000" stroke="none" 
	d="
M323.034210,456.884735 
	C324.139404,456.878876 325.244568,456.873047 326.743317,457.005066 
	C324.991180,457.957458 322.845459,458.771973 320.448120,459.191559 
	C321.142395,458.159302 322.088287,457.522003 323.034210,456.884735 
z"/>
<path fill="#78B4B9" opacity="1.000000" stroke="none" 
	d="
M358.115723,417.857910 
	C356.716766,417.667908 355.586121,417.345367 354.116760,416.890411 
	C356.182587,412.941589 357.520813,414.202698 358.115723,417.857910 
z"/>
<path fill="#78B4B9" opacity="1.000000" stroke="none" 
	d="
M349.996033,418.051239 
	C348.497528,418.371307 346.998993,418.691376 345.132141,418.873749 
	C346.357178,417.964325 347.950531,417.192535 349.782288,416.920471 
	C350.012482,417.630554 350.004242,417.840881 349.996033,418.051239 
z"/>
<path fill="#67AAB0" opacity="1.000000" stroke="none" 
	d="
M322.805664,456.681885 
	C322.088287,457.522003 321.142395,458.159302 320.098663,459.055695 
	C319.571320,459.467224 319.141815,459.619659 318.370636,459.714294 
	C318.009216,459.482788 317.989502,459.309082 317.922913,458.875061 
	C319.443085,457.902863 321.010071,457.190979 322.805664,456.681885 
z"/>
<path fill="#929292" opacity="1.000000" stroke="none" 
	d="
M400.786469,174.734283 
	C399.887665,173.439896 399.239136,171.935547 398.830872,170.215698 
	C399.726349,171.508224 400.381531,173.016281 400.786469,174.734283 
z"/>
<path fill="#565656" opacity="1.000000" stroke="none" 
	d="
M377.172180,174.581268 
	C375.859650,173.882065 374.666901,173.211319 373.237000,172.292511 
	C375.589417,169.898575 376.961395,171.162994 377.675079,174.126297 
	C377.498596,174.475830 377.291962,174.609695 377.172180,174.581268 
z"/>
<path fill="#78B4B9" opacity="1.000000" stroke="none" 
	d="
M226.007050,462.451355 
	C227.311111,462.006409 228.724823,461.908386 230.572052,462.082672 
	C231.031540,462.671875 231.044830,462.989319 231.045441,463.307281 
	C229.402527,463.137604 227.759613,462.967957 226.007050,462.451355 
z"/>
<path fill="#78B4B9" opacity="1.000000" stroke="none" 
	d="
M103.684891,421.793152 
	C105.105522,422.192291 106.597107,422.924683 108.202362,423.947815 
	C106.795975,423.534546 105.275909,422.830505 103.684891,421.793152 
z"/>
<path fill="#78B4B9" opacity="1.000000" stroke="none" 
	d="
M292.009735,461.870575 
	C293.417999,461.843445 294.826263,461.816315 296.639832,461.916626 
	C295.587555,462.563416 294.129974,463.082794 292.318420,463.222626 
	C291.989075,462.519379 292.004181,462.195190 292.009735,461.870575 
z"/>
<path fill="#67AAB0" opacity="1.000000" stroke="none" 
	d="
M231.432709,463.500427 
	C231.044830,462.989319 231.031540,462.671875 230.997986,462.112762 
	C232.046387,462.134064 233.102371,462.397552 234.211685,462.944733 
	C233.450012,463.383453 232.634995,463.538513 231.432709,463.500427 
z"/>
<path fill="#67AAB0" opacity="1.000000" stroke="none" 
	d="
M291.796356,461.666504 
	C292.004181,462.195190 291.989075,462.519379 291.959106,463.080750 
	C291.124725,463.444305 290.295654,463.570221 289.102448,463.463989 
	C289.686554,462.642059 290.634766,462.052277 291.796356,461.666504 
z"/>
<path fill="#696969" opacity="1.000000" stroke="none" 
	d="
M473.107910,161.086655 
	C473.694885,161.551926 474.346985,162.450714 475.031982,163.696747 
	C474.570862,164.405701 474.076813,164.767410 473.283325,165.054199 
	C473.046936,163.826233 473.109985,162.673203 473.107910,161.086655 
z"/>
<path fill="#B8B8B8" opacity="1.000000" stroke="none" 
	d="
M398.160797,165.820099 
	C397.253723,165.233780 396.567780,164.455887 395.898682,163.360641 
	C396.737701,163.905045 397.559845,164.766769 398.160797,165.820099 
z"/>
<path fill="#494949" opacity="1.000000" stroke="none" 
	d="
M183.308655,145.955353 
	C182.997513,145.538773 183.040695,145.113266 183.068420,144.363708 
	C183.827942,143.349030 184.602936,142.658401 185.691299,141.987473 
	C185.224121,143.320251 184.443573,144.633347 183.308655,145.955353 
z"/>
<path fill="#B8B8B8" opacity="1.000000" stroke="none" 
	d="
M226.093201,133.898666 
	C225.925110,133.511444 225.757050,133.124222 225.707153,132.442474 
	C226.712021,132.798859 227.598694,133.449768 228.042603,134.320190 
	C227.097626,134.326035 226.595413,134.112350 226.093201,133.898666 
z"/>
<path fill="#494949" opacity="1.000000" stroke="none" 
	d="
M164.485931,169.025604 
	C164.382141,169.987350 163.949982,171.006943 163.185608,171.971008 
	C163.288116,170.971466 163.722839,170.027451 164.485931,169.025604 
z"/>
<path fill="#67AAB0" opacity="1.000000" stroke="none" 
	d="
M307.832642,459.698914 
	C307.994751,460.225098 307.980042,460.562683 307.959839,461.148621 
	C307.439270,461.489502 306.924255,461.582031 306.076630,461.448669 
	C306.381287,460.651978 307.018585,460.081177 307.832642,459.698914 
z"/>
<path fill="#67AAB0" opacity="1.000000" stroke="none" 
	d="
M214.410858,461.485107 
	C214.044312,460.995941 214.030746,460.671997 213.996063,460.101471 
	C214.724533,460.137207 215.461151,460.420074 216.232132,460.964386 
	C215.769928,461.367157 215.273361,461.508484 214.410858,461.485107 
z"/>
<path fill="#78B4B9" opacity="1.000000" stroke="none" 
	d="
M139.648071,439.790405 
	C140.371872,439.732819 141.150528,439.951935 141.968185,440.517273 
	C141.239105,440.598022 140.471024,440.332550 139.648071,439.790405 
z"/>
<path fill="#494949" opacity="1.000000" stroke="none" 
	d="
M226.043350,134.270172 
	C226.595413,134.112350 227.097626,134.326035 227.875793,134.572876 
	C228.268677,135.109329 228.385605,135.612640 228.377823,136.482300 
	C227.499924,136.112991 226.746719,135.377335 226.043350,134.270172 
z"/>
<path fill="#B8B8B8" opacity="1.000000" stroke="none" 
	d="
M167.928467,164.942383 
	C167.521576,165.359924 167.114670,165.777466 166.413895,166.182236 
	C166.449860,165.131836 166.779709,164.094208 167.413284,162.883545 
	C167.717026,162.710495 167.994553,162.976898 168.046387,163.387787 
	C168.041641,164.179916 167.985062,164.561157 167.928467,164.942383 
z"/>
<path fill="#78B4B9" opacity="1.000000" stroke="none" 
	d="
M251.914795,464.406036 
	C252.371735,464.052856 252.882294,463.958740 253.763763,464.003662 
	C253.412582,464.316833 252.690506,464.490936 251.914795,464.406036 
z"/>
<path fill="#78B4B9" opacity="1.000000" stroke="none" 
	d="
M219.146652,461.880554 
	C219.601288,461.518860 220.166351,461.401306 220.852142,461.501892 
	C220.400940,461.854919 219.829010,461.989838 219.146652,461.880554 
z"/>
<path fill="#AAAAAA" opacity="1.000000" stroke="none" 
	d="
M432.483826,244.161224 
	C432.997314,244.582092 433.271912,245.148865 433.303986,245.857224 
	C432.789276,245.434906 432.517120,244.871017 432.483826,244.161224 
z"/>
<path fill="#B0B0B0" opacity="1.000000" stroke="none" 
	d="
M451.371307,129.885223 
	C451.371338,130.479660 451.088745,131.205490 450.489075,132.026031 
	C450.477570,131.419373 450.783112,130.717987 451.371307,129.885223 
z"/>
<path fill="#B0B0B0" opacity="1.000000" stroke="none" 
	d="
M448.014893,135.970978 
	C448.450500,136.224838 448.666443,136.719055 448.952362,137.619873 
	C448.806244,138.243484 448.568634,138.433685 448.080078,138.590347 
	C447.832153,137.792862 447.813690,137.002106 448.014893,135.970978 
z"/>
<path fill="#262626" opacity="1.000000" stroke="none" 
	d="
M230.544418,147.693466 
	C231.061768,147.538483 231.385391,147.720383 231.984344,147.959442 
	C232.271774,148.482376 232.283875,148.948166 232.114166,149.713287 
	C231.405136,149.351868 230.877930,148.691116 230.544418,147.693466 
z"/>
<path fill="#585858" opacity="1.000000" stroke="none" 
	d="
M372.520691,164.751587 
	C372.326080,165.515381 371.799469,166.191696 370.928040,166.738983 
	C371.118347,165.961319 371.653503,165.312714 372.520691,164.751587 
z"/>
<path fill="#C2C2C2" opacity="1.000000" stroke="none" 
	d="
M466.815674,170.363251 
	C467.212250,169.824402 467.897339,169.486893 468.877655,169.245331 
	C468.483337,169.749039 467.793793,170.156815 466.815674,170.363251 
z"/>
<path fill="#494949" opacity="1.000000" stroke="none" 
	d="
M161.466782,174.976974 
	C161.303299,174.401062 161.484879,173.729080 161.852280,172.748611 
	C162.038101,172.440125 162.272766,172.360825 162.384644,172.413696 
	C162.268311,173.271362 162.040085,174.076126 161.466782,174.976974 
z"/>
<path fill="#78B4B9" opacity="1.000000" stroke="none" 
	d="
M151.066742,444.316772 
	C151.709579,444.188904 152.396057,444.397614 153.200104,444.864014 
	C152.581909,444.965607 151.846161,444.809509 151.066742,444.316772 
z"/>
<path fill="#C2C2C2" opacity="1.000000" stroke="none" 
	d="
M468.878418,244.880829 
	C468.532318,245.454941 468.054352,245.775314 467.272766,246.024780 
	C467.561646,245.511612 468.154114,245.069351 468.878418,244.880829 
z"/>
<path fill="#C2C2C2" opacity="1.000000" stroke="none" 
	d="
M477.330688,245.953476 
	C477.316071,245.277893 477.650818,244.569717 478.269531,243.743240 
	C478.262360,244.390259 477.971222,245.155563 477.330688,245.953476 
z"/>
<path fill="#C2C2C2" opacity="1.000000" stroke="none" 
	d="
M475.281494,248.928711 
	C475.287994,248.247437 475.648376,247.553833 476.295776,246.749680 
	C476.266968,247.398224 475.951172,248.157303 475.281494,248.928711 
z"/>
<path fill="#565656" opacity="1.000000" stroke="none" 
	d="
M379.915253,256.760590 
	C379.702881,257.112335 379.498291,257.150360 378.996277,257.285522 
	C378.429169,256.746674 378.159393,256.110687 378.088501,255.178497 
	C378.832611,255.403839 379.377808,255.925354 379.915253,256.760590 
z"/>
<path fill="#67AAB0" opacity="1.000000" stroke="none" 
	d="
M350.182800,418.247559 
	C350.004242,417.840881 350.012482,417.630554 350.039612,417.104431 
	C350.507629,416.773376 350.956665,416.758118 351.711609,416.888733 
	C351.468170,417.504395 350.918854,417.974152 350.182800,418.247559 
z"/>
<path fill="#78B4B9" opacity="1.000000" stroke="none" 
	d="
M99.077553,419.296143 
	C99.734779,419.247833 100.435539,419.527832 101.211472,420.103210 
	C100.564781,420.140503 99.842934,419.882446 99.077553,419.296143 
z"/>
<path fill="#67AAB0" opacity="1.000000" stroke="none" 
	d="
M312.798096,458.744263 
	C312.137726,459.272766 311.263519,459.583771 310.013489,459.824951 
	C310.619812,459.345642 311.602020,458.936218 312.798096,458.744263 
z"/>
<path fill="#67AAB0" opacity="1.000000" stroke="none" 
	d="
M212.214935,459.475159 
	C211.405167,459.670593 210.436447,459.598175 209.228546,459.246857 
	C210.011581,459.047760 211.033768,459.127533 212.214935,459.475159 
z"/>
<path fill="#67AAB0" opacity="1.000000" stroke="none" 
	d="
M180.229523,452.515869 
	C179.701828,452.660858 179.042053,452.565125 178.178452,452.193359 
	C178.682220,452.036560 179.389832,452.155853 180.229523,452.515869 
z"/>
<path fill="#67AAB0" opacity="1.000000" stroke="none" 
	d="
M331.748627,454.321472 
	C331.493408,454.889679 330.934052,455.388855 330.052856,455.861633 
	C330.302185,455.307648 330.873352,454.780060 331.748627,454.321472 
z"/>
<path fill="#67AAB0" opacity="1.000000" stroke="none" 
	d="
M201.225922,457.515564 
	C200.692810,457.660614 200.030548,457.557098 199.167267,457.172241 
	C199.676422,457.016266 200.386612,457.141632 201.225922,457.515564 
z"/>
<path fill="#67AAB0" opacity="1.000000" stroke="none" 
	d="
M130.139877,434.549377 
	C129.557541,434.523621 128.840149,434.216705 128.037643,433.613312 
	C128.636627,433.633972 129.320740,433.951111 130.139877,434.549377 
z"/>
<path fill="#F5F5F5" opacity="1.000000" stroke="none" 
	d="
M304.449615,331.776917 
	C298.280823,332.217102 292.763885,331.805115 287.608032,328.748077 
	C282.617889,325.789276 280.133331,321.509369 279.447632,315.870514 
	C277.602417,300.696899 280.146057,286.492188 288.538635,273.537384 
	C289.622711,271.863953 290.657074,270.100189 292.026459,268.678894 
	C302.863678,257.430817 313.776459,246.255554 324.666016,235.057907 
	C325.156677,235.274338 325.647308,235.490768 326.137970,235.707199 
	C326.305023,237.536240 326.614105,239.365021 326.617340,241.194351 
	C326.652161,260.853088 326.604218,280.512024 326.654907,300.170715 
	C326.676300,308.471222 323.747681,315.790649 319.098236,322.396179 
	C315.667236,327.270630 310.980896,330.702484 304.449615,331.776917 
z"/>
<path fill="#F4F4F4" opacity="1.000000" stroke="none" 
	d="
M303.417603,175.358063 
	C310.152954,170.305115 317.366058,167.851273 326.043884,168.170212 
	C326.237549,169.826218 326.610382,171.558640 326.616150,173.292282 
	C326.664520,187.791229 326.830719,202.294846 326.483704,216.785599 
	C326.417664,219.544098 324.881622,222.888702 322.917877,224.862686 
	C317.275360,230.534698 310.087036,233.886307 302.178497,234.776550 
	C297.708374,235.279755 293.177063,233.910583 290.537781,229.539444 
	C286.036194,222.083939 284.840973,213.803375 286.414001,205.500565 
	C288.628662,193.810913 293.992371,183.556717 303.417603,175.358063 
z"/>
<path fill="#494949" opacity="1.000000" stroke="none" 
	d="
M174.394531,157.042969 
	C176.470108,153.733902 178.893127,150.434570 181.646698,147.054947 
	C179.565491,150.334000 177.153732,153.693344 174.394531,157.042969 
z"/>
<path fill="#494949" opacity="1.000000" stroke="none" 
	d="
M168.283417,164.955170 
	C167.985062,164.561157 168.041641,164.179916 168.187927,163.518066 
	C169.526047,161.762024 170.774506,160.286606 172.336731,158.736038 
	C171.313126,160.763245 169.975754,162.865585 168.283417,164.955170 
z"/>
<path fill="#494949" opacity="1.000000" stroke="none" 
	d="
M216.985641,129.558701 
	C218.685791,129.752808 220.467667,130.288696 222.360291,131.109070 
	C220.669830,130.895859 218.868591,130.398163 216.985641,129.558701 
z"/>
<path fill="#505050" opacity="1.000000" stroke="none" 
	d="
M458.993103,261.409912 
	C452.641083,267.200378 445.620789,267.930939 439.122833,263.312073 
	C445.900269,266.297150 452.256561,263.726044 458.993103,261.409912 
z"/>
<path fill="#505050" opacity="1.000000" stroke="none" 
	d="
M433.127838,158.812790 
	C433.295044,158.153259 433.800507,157.546982 434.620728,156.934723 
	C434.445740,157.574509 433.955902,158.220276 433.127838,158.812790 
z"/>
<path fill="#585858" opacity="1.000000" stroke="none" 
	d="
M377.956055,162.563873 
	C378.962677,161.660400 380.287842,160.910446 381.933167,160.309738 
	C380.927124,161.211792 379.600891,161.964584 377.956055,162.563873 
z"/>
<path fill="#565656" opacity="1.000000" stroke="none" 
	d="
M399.009552,263.634613 
	C398.611633,264.173584 397.944977,264.508301 396.989807,264.737061 
	C397.381134,264.230835 398.060974,263.830597 399.009552,263.634613 
z"/>
<path fill="#020202" opacity="1.000000" stroke="none" 
	d="
M113.725433,152.980408 
	C113.769691,152.664688 114.019379,152.523911 114.622658,152.628540 
	C114.627785,152.967758 114.279320,153.061539 113.725433,152.980408 
z"/>
</svg>